. 
  
http://www.torrenting.com/        :     Greatest Movie Tracker on The Net!!!
 
http://www.Torrenting.com          :     Once & For all ;)


               www . Torrenting . Com 

(((((((((((((= Enjoy No RAR releases =))))))))))))))))))))


...................................NFO:....................................

.  
[pre]ooooo ooo        ooooo       .o.         .oooooo.     o8o  ooooo      ooo oooooooooooo 
      888' `88.       .888'      .888.       d8P'  `Y8b    `"'  `888b.     `8' `888'     `8 
      888   888b     d'888      .8"888.     888           oooo   8 `88b.    8   888         
      888   8 Y88. .P  888     .8' `888.    888           `888   8   `88b.  8   888oooo8    
      888   8  `888'   888    .88ooo8888.   888     ooooo  888   8     `88b.8   888    "    
      888   8    Y     888   .8'     `888.  `88.    .88'   888   8       `888   888       o 
     o888o o8o        o888o o88o     o8888o  `Y8bood8P'   o888o o8o        `8  o888ooooood8  
                                                



                  Another Fine Release Brought to you from - IMAGiNE                   
                                                 

******************************************************************************************
                       The Guard 2011 DVDSCR XViD AC3 - IMAGiNE               
******************************************************************************************

Ripper ...........: IMAGiNE              IMDB Rating.......: 7.8/10                             
Video Codec.......: XViD                 Release Date......: 09/09/11
Audio Codec.......: AC3                  Theatre Date......: 29/07/11
Audio Bitrate.....: 256                  Runtime...........: 1h 36min
Subtitles.........: NIL                  Language..........: ENGLISH
Resolution........: 720 x 384            IMDb URL..........: http://www.imdb.com/title/tt1540133/


[color=yellow]DETAILS:[/color]
Video
ID                               : 0
Format                           : MPEG-4 Visual
Format profile                   : Advanced Simple@L5
Format settings, BVOP            : 2
Format settings, QPel            : No
Format settings, GMC             : No warppoints
Format settings, Matrix          : Default (H.263)
Muxing mode                      : Packed bitstream
Codec ID                         : XVID
Codec ID/Hint                    : XviD
Duration                         : 1h 36mn
Bit rate                         : 1 739 Kbps
Width                            : 720 pixels
Height                           : 384 pixels
Display aspect ratio             : 1.875
Frame rate                       : 25.000 fps
Color space                      : YUV
Chroma subsampling               : 4:2:0
Bit depth                        : 8 bits
Scan type                        : Progressive
Compression mode                 : Lossy
Bits/(Pixel*Frame)               : 0.252
Stream size                      : 1.17 GiB (87%)
Writing library                  : XviD 64

Audio
ID                               : 1
Format                           : AC-3
Format/Info                      : Audio Coding 3
Mode extension                   : CM (complete main)
Codec ID                         : 2000
Duration                         : 1h 36mn
Bit rate mode                    : Constant
Bit rate                         : 256 Kbps
Channel(s)                       : 2 channels
Channel positions                : Front: L R
Sampling rate                    : 48.0 KHz
Bit depth                        : 16 bits
Compression mode                 : Lossy
Stream size                      : 177 MiB (13%)
Alignment                        : Aligned on interleaves
Interleave, duration             : 40 ms (1.00 video frame)



[color=yellow]SOURCES:[/color]

VIDEO: ............. Thanks 
AUDIO: ............. Matey :P

[color=yellow]NOTES:[/color]
Here we have a dvdscr of The Guard, 
a very nice source if we do say so ourselves. 
Please be patient and watch your emails. 
HaHaHa the serpant lives on
Enjoy folks :D

[color=yellow]SCREENS:[/color]

[IMG]http://i.imgur.com/5S8Pf.jpg[/IMG]
[IMG]http://i.imgur.com/igipd.jpg[/IMG]
[IMG]http://i.imgur.com/WQR0k.jpg[/IMG]
[IMG]http://i.imgur.com/WSXOV.jpg[/IMG]
[IMG]http://i.imgur.com/xrHqm.jpg[/IMG]
[IMG]http://i.imgur.com/HnfW4.jpg[/IMG]
[IMG]http://i.imgur.com/xWnE3.jpg[/IMG]

[color=yellow]GREETS:[/color]

FLAWL3SS,KINOPARK,Rx,ELEKTRI4KA,ADDiCTED,Autotron,CiNEDUB,CRYS
And to all the other p2p grps past and present 

[COLOR=RED]Looking for these,syncers,cammers,audio,silver supplier.....Have anything to offer????......
Contact us imaginegroup@hushmail.com[/COLOR][/pre]